<svg xmlns="http://www.w3.org/2000/svg"  viewBox="0 0 100 100" width="400px" height="400px"><path fill="#fefdef" d="M69,82H31c-7.18,0-13-5.82-13-13V31c0-7.18,5.82-13,13-13h38c7.18,0,13,5.82,13,13v38	C82,76.18,76.18,82,69,82z"/><path d="M69,83H31c-7.72,0-14-6.28-14-14V31c0-7.72,6.28-14,14-14h38c7.72,0,14,6.28,14,14v38C83,76.72,76.72,83,69,83z M31,19	c-6.617,0-12,5.383-12,12v38c0,6.617,5.383,12,12,12h38c6.617,0,12-5.383,12-12V31c0-6.617-5.383-12-12-12H31z"/><path fill="#1f212b" d="M77.5,40c-0.276,0-0.5-0.224-0.5-0.5v-2c0-0.276,0.224-0.5,0.5-0.5s0.5,0.224,0.5,0.5v2	C78,39.776,77.776,40,77.5,40z"/><path fill="#1f212b" d="M77.5,47c-0.276,0-0.5-0.224-0.5-0.5v-4c0-0.276,0.224-0.5,0.5-0.5s0.5,0.224,0.5,0.5v4	C78,46.776,77.776,47,77.5,47z"/><path fill="#1f212b" d="M69,83H31c-7.72,0-14-6.28-14-14V31c0-7.72,6.28-14,14-14h38c7.72,0,14,6.28,14,14v38	C83,76.72,76.72,83,69,83z M31,19c-6.617,0-12,5.383-12,12v38c0,6.617,5.383,12,12,12h38c6.617,0,12-5.383,12-12V31	c0-6.617-5.383-12-12-12H31z"/><path fill="#ead6c7" d="M61.665,49.344C61.567,49.217,61,48.588,61,48.588v-3.647C61,38.784,56.053,34,50.029,34	c-0.01,0-0.019,0.001-0.029,0.001S49.981,34,49.971,34C43.947,34,39,38.784,39,44.941v3.647c0,0-0.567,0.629-0.665,0.756	c-0.163,0.215-0.318,0.541-0.334,0.99c-0.01,0.271,0.642,3.695,0.831,4.283C39.04,55.277,39.456,55.818,40,56v0.49	c0,1.216,0.569,2.394,0.993,3.039c1.272,1.937,3.199,3.355,5.007,4.263c0,0.07,0,0.138,0,0.208c0,2.031-2,2.75-2,2.75S45,71,50,71	s6-4.25,6-4.25S54,66,54,64c0-0.07,0-0.138,0-0.208c1.808-0.908,3.736-2.326,5.007-4.263C59.431,58.884,60,57.706,60,56.49V56	c0.544-0.182,0.96-0.723,1.168-1.384c0.189-0.588,0.841-4.012,0.831-4.283C61.982,49.885,61.828,49.559,61.665,49.344z"/><path fill="#00ac9c" d="M61.59,68.552L56,66.721c0,0-0.328-0.125-0.716-0.398L55.13,66.5v0.01C55.12,66.53,54.14,68,50,68	c-4.13,0-5.12-1.47-5.12-1.48l-0.152-0.177C44.334,66.622,44,66.75,44,66.75l-5.59,1.832C36.187,69.448,34.517,71.708,34,74	l-0.778,3.5h33.562L66,73.971C65.483,71.678,63.813,69.419,61.59,68.552z"/><path fill="#1f212b" d="M49.971,65c-1.933,0-6.587-1.828-8.978-5.471l0.836-0.549C43.96,62.229,48.326,64,49.971,64	c1.712,0,6.037-1.724,8.201-5.02l0.836,0.549C56.616,63.172,51.925,65,49.971,65z"/><path fill="#1f212b" d="M52.5,68.786c-0.236,0-0.445-0.167-0.491-0.407c-0.051-0.271,0.127-0.533,0.398-0.584	c2.137-0.404,2.716-1.276,2.722-1.285c0.145-0.227,0.447-0.302,0.678-0.167c0.232,0.136,0.318,0.425,0.191,0.662	c-0.028,0.051-0.705,1.263-3.405,1.773C52.562,68.783,52.53,68.786,52.5,68.786z"/><path fill="#1f212b" d="M50,69c-4.834,0-5.945-1.9-5.99-1.981c-0.134-0.241-0.047-0.545,0.194-0.68	c0.236-0.133,0.533-0.05,0.671,0.18C44.908,66.567,45.916,68,50,68c0.13,0,0.252-0.004,0.375-0.008l0.111-0.004	c0.244,0.007,0.506,0.209,0.515,0.485c0.008,0.276-0.209,0.506-0.485,0.515l-0.107,0.003C50.274,68.996,50.142,69,50,69z"/><path fill="#b77748" d="M50.625,31.5c-5.921,0-7.796,3.153-8.125,4c-3,1-5,4.157-5,7.546c0,5.421,3,7.454,3,7.454	c0-6.099,3-8.967,3-11c1.186,1.935,3.535,3,7,3c3.372,0,5.438-1.068,7-2c2.25,2.875,2,10,2,10s3-2.033,3-6.099	c0-3.401-2-4.901-2-4.901c0.987-0.678,2-2.153,2-3C59.539,36.5,57.204,31.5,50.625,31.5z"/><path fill="#1f212b" d="M40.5,51c-0.098,0-0.196-0.029-0.28-0.086C40.088,50.825,37,48.667,37,43.046	c0-3.591,2.099-6.823,5.13-7.946c0.452-0.938,2.427-4.1,8.495-4.1c4.103,0,6.593,1.845,8.594,3.328C60.48,35.262,61.477,36,62.5,36	c0.276,0,0.5,0.224,0.5,0.5c0,0.919-0.845,2.22-1.74,3.032c0.646,0.7,1.74,2.27,1.74,4.869c0,4.282-3.088,6.424-3.22,6.513	c-0.155,0.104-0.358,0.115-0.522,0.023c-0.165-0.091-0.265-0.267-0.258-0.455c0.002-0.066,0.199-6.418-1.645-9.319	C55.636,42.145,53.583,43,50.5,43c-3.001,0-5.298-0.796-6.723-2.316c-0.175,0.52-0.438,1.08-0.736,1.714	C42.18,44.232,41,46.745,41,50.5c0,0.185-0.102,0.355-0.266,0.442C40.661,50.98,40.58,51,40.5,51z M57.5,40	c0.149,0,0.296,0.067,0.394,0.192c1.804,2.304,2.084,7.029,2.113,9.199C60.83,48.532,62,46.875,62,44.401	c0-3.086-1.729-4.446-1.802-4.502c-0.127-0.097-0.201-0.25-0.197-0.411c0.004-0.16,0.084-0.309,0.216-0.4	c0.752-0.517,1.439-1.473,1.686-2.144c-1.111-0.207-2.128-0.961-3.279-1.813C56.741,33.736,54.397,32,50.625,32	c-6.158,0-7.601,3.531-7.659,3.681c-0.054,0.139-0.167,0.246-0.308,0.293C39.916,36.889,38,39.796,38,43.046	c0,3.405,1.208,5.38,2.034,6.332c0.203-3.36,1.289-5.672,2.102-7.405C42.619,40.945,43,40.133,43,39.5	c0-0.224,0.149-0.42,0.364-0.481c0.216-0.061,0.445,0.029,0.562,0.22C45.05,41.071,47.262,42,50.5,42	c3.237,0,5.178-0.996,6.744-1.93C57.324,40.023,57.412,40,57.5,40z"/><path fill="#1f212b" d="M66.5,78h-33C27.159,78,22,72.841,22,66.5v-33C22,27.159,27.159,22,33.5,22h33	c0.354,0,0.7,0.021,1.045,0.053c0.275,0.025,0.478,0.268,0.453,0.543c-0.025,0.275-0.277,0.479-0.543,0.453	C67.14,23.021,66.822,23,66.5,23h-33C27.71,23,23,27.71,23,33.5v33C23,72.29,27.71,77,33.5,77h33C72.29,77,77,72.29,77,66.5v-17	c0-0.276,0.224-0.5,0.5-0.5s0.5,0.224,0.5,0.5v17C78,72.841,72.841,78,66.5,78z"/><path fill="#1f212b" d="M53.036,64.5c0.304,2.298,2.526,3.126,2.652,3.171l5.538,1.813c1.794,0.7,3.32,2.591,3.797,4.704	L65.76,77.5h2.05l-0.833-3.75c-0.628-2.779-2.599-5.185-5.074-6.148l-5.555-1.819c-0.049-0.019-1.069-0.423-1.297-1.414	c1.536-0.852,3.44-2.229,4.794-4.291c0.266-0.405,1.123-1.837,1.156-3.489c0.503-0.376,0.897-0.955,1.121-1.667	c0.178-0.554,0.896-4.129,0.878-4.625c-0.027-0.74-0.307-1.256-0.541-1.564c-0.096-0.125-0.531-0.707-0.532-0.708l-1.602,1.197	c0,0,0.449,0.601,0.544,0.725c0.055,0.073,0.123,0.205,0.131,0.352c-0.032,0.41-0.629,3.527-0.786,4.016	c-0.136,0.431-0.365,0.68-0.531,0.736C59.275,55.188,59,55.57,59,56v0.49c0,0.905-0.428,1.88-0.829,2.49	c-1.009,1.537-2.65,2.929-4.62,3.918C53.213,63.068,53,63.415,53,63.792V64c0,0.109,0.031,0.488,0.032,0.5H53.036z"/><path fill="#1f212b" d="M34.247,77.5l0.729-3.28c0.478-2.116,2.004-4.007,3.746-4.688l5.616-1.841	c0.102-0.037,2.343-0.87,2.631-3.191C46.989,64.34,47,64.174,47,64v-0.208c0-0.378-0.213-0.724-0.551-0.894	c-1.97-0.99-3.611-2.381-4.62-3.918C41.428,58.37,41,57.396,41,56.49V56c0-0.43-0.275-0.812-0.683-0.948	c-0.167-0.056-0.396-0.305-0.533-0.742c-0.155-0.482-0.752-3.6-0.783-3.94c0.008-0.216,0.075-0.348,0.125-0.414	c0.107-0.135,0.615-0.696,0.617-0.698l-1.484-1.34c0,0-0.61,0.679-0.719,0.82c-0.23,0.303-0.51,0.819-0.537,1.559	c-0.018,0.496,0.7,4.071,0.876,4.619c0.225,0.716,0.619,1.296,1.123,1.672c0.033,1.652,0.89,3.083,1.156,3.489	c1.355,2.064,3.26,3.44,4.797,4.292c-0.003,0.014-0.025,0.1-0.034,0.129h0.003c-0.271,0.916-1.217,1.292-1.235,1.3l-5.642,1.85	c-2.424,0.945-4.395,3.351-5.023,6.133L32.198,77.5H34.247z"/></svg>