<svg xmlns="http://www.w3.org/2000/svg"  viewBox="0 0 520 520" width="512px" height="512px"><path d="M140,145h-40c-5.523,0-10,4.477-10,10v40c0,5.523,4.477,10,10,10h40c5.523,0,10-4.477,10-10v-40 C150,149.477,145.523,145,140,145z M130,185h-20v-20h20V185z"/><path d="M230,145h-40c-5.523,0-10,4.477-10,10v40c0,5.523,4.477,10,10,10h40c5.523,0,10-4.477,10-10v-40 C240,149.477,235.523,145,230,145z M220,185h-20v-20h20V185z"/><path d="M280,205h40c5.522,0,10-4.477,10-10v-40c0-5.523-4.478-10-10-10h-40c-5.522,0-10,4.477-10,10v40 C270,200.523,274.478,205,280,205z M290,165h20v20h-20V165z"/><path d="M370,205h40c5.522,0,10-4.477,10-10v-40c0-5.523-4.478-10-10-10h-40c-5.522,0-10,4.477-10,10v40 C360,200.523,364.478,205,370,205z M380,165h20v20h-20V165z"/><path d="M140,225h-40c-5.523,0-10,4.477-10,10v40c0,5.522,4.477,10,10,10h40c5.523,0,10-4.478,10-10v-40 C150,229.477,145.523,225,140,225z M130,265h-20v-20h20V265z"/><path d="M230,225h-40c-5.523,0-10,4.477-10,10v40c0,5.522,4.477,10,10,10h40c5.523,0,10-4.478,10-10v-40 C240,229.477,235.523,225,230,225z M220,265h-20v-20h20V265z"/><path d="M330,275v-40c0-5.523-4.478-10-10-10h-40c-5.522,0-10,4.477-10,10v40c0,5.522,4.478,10,10,10h40 C325.522,285,330,280.522,330,275z M310,265h-20v-20h20V265z"/><path d="M477.719,65H450V45c0-22.056-17.944-40-40-40s-40,17.944-40,40v20h-20V45c0-22.056-17.944-40-40-40 s-40,17.944-40,40v20h-20V45c0-22.056-17.944-40-40-40s-40,17.944-40,40v20h-20V45c0-22.056-17.944-40-40-40S70,22.944,70,45v20 H42.282C18.968,65,0,83.968,0,107.282v315.437C0,446.033,18.968,465,42.282,465h73.313c18.509,29.978,51.661,50,89.406,50 c37.745,0,70.896-20.022,89.406-50h183.313C501.033,465,520,446.033,520,422.719V107.282C520,83.968,501.033,65,477.719,65z M390,45c0-11.028,8.972-20,20-20s20,8.972,20,20v20h-40V45z M290,45c0-11.028,8.972-20,20-20s20,8.972,20,20v20h-40V45z M370,85 c0,7.283,1.966,14.112,5.381,20H310c-11.028,0-20-8.972-20-20H370z M190,45c0-11.028,8.972-20,20-20s20,8.972,20,20v20h-40V45z M270,85c0,7.283,1.966,14.112,5.381,20H210c-11.028,0-20-8.972-20-20H270z M90,45c0-11.028,8.972-20,20-20s20,8.972,20,20v20H90 V45z M170,85c0,7.283,1.966,14.112,5.381,20H110c-11.028,0-20-8.972-20-20H170z M42.282,445C29.996,445,20,435.005,20,422.719 V107.282C20,94.996,29.996,85,42.282,85H70c0,7.283,1.966,14.112,5.381,20H50c-5.523,0-10,4.477-10,10v300 c0,5.522,4.477,10,10,10h51.076c0.992,6.905,2.658,13.594,4.93,20H42.282z M205,495c-46.869,0-85-38.131-85-85s38.131-85,85-85 s85,38.131,85,85S251.869,495,205,495z M205,305c-56.221,0-102.259,44.415-104.878,100H60V125h390v210h-60 c-5.522,0-10,4.478-10,10v60h-70.122C307.259,349.415,261.221,305,205,305z M435.857,355L400,390.857V355H435.857z M500,422.719 c0,12.286-9.995,22.281-22.281,22.281H303.994c2.272-6.406,3.938-13.095,4.93-20H390c0.335,0,0.668-0.017,0.998-0.05 c0.247-0.024,0.488-0.067,0.73-0.109c0.08-0.014,0.161-0.021,0.24-0.037c0.287-0.057,0.567-0.131,0.845-0.212 c0.033-0.01,0.068-0.016,0.101-0.026c0.281-0.086,0.556-0.187,0.826-0.296c0.031-0.012,0.063-0.021,0.093-0.034 c0.255-0.106,0.501-0.226,0.745-0.352c0.047-0.024,0.095-0.043,0.141-0.068c0.22-0.118,0.432-0.25,0.642-0.384 c0.066-0.042,0.135-0.078,0.2-0.121c0.187-0.126,0.365-0.264,0.543-0.402c0.081-0.062,0.166-0.118,0.245-0.183 c0.183-0.151,0.355-0.314,0.526-0.477c0.064-0.061,0.133-0.115,0.196-0.177l70-70c0.063-0.063,0.117-0.132,0.177-0.196 c0.163-0.172,0.326-0.343,0.477-0.526c0.066-0.08,0.122-0.166,0.185-0.247c0.137-0.177,0.275-0.354,0.4-0.54 c0.045-0.067,0.082-0.138,0.125-0.205c0.133-0.209,0.264-0.418,0.381-0.637c0.025-0.046,0.044-0.095,0.068-0.141 c0.126-0.243,0.246-0.49,0.352-0.745c0.013-0.031,0.022-0.063,0.034-0.093c0.109-0.27,0.21-0.545,0.296-0.826 c0.01-0.034,0.016-0.068,0.026-0.102c0.081-0.277,0.155-0.557,0.212-0.843c0.017-0.084,0.024-0.17,0.039-0.254 c0.041-0.237,0.083-0.474,0.107-0.716c0.033-0.33,0.05-0.663,0.05-0.998V115c0-5.523-4.478-10-10-10h-50 c-11.028,0-20-8.972-20-20h87.719C490.005,85,500,94.996,500,107.282V422.719z"/><path d="M250,385h-20v-20c0-5.522-4.477-10-10-10h-30c-5.523,0-10,4.478-10,10v20h-20c-5.523,0-10,4.478-10,10 v30c0,5.522,4.477,10,10,10h20v20c0,5.522,4.477,10,10,10h30c5.523,0,10-4.478,10-10v-20h20c5.523,0,10-4.478,10-10v-30 C260,389.478,255.523,385,250,385z M240,415h-20c-5.523,0-10,4.478-10,10v20h-10v-20c0-5.522-4.477-10-10-10h-20v-10h20 c5.523,0,10-4.478,10-10v-20h10v20c0,5.522,4.477,10,10,10h20V415z"/></svg>