<svg xmlns="http://www.w3.org/2000/svg"  viewBox="0 0 64 64" width="480px" height="480px"><path d="M 32 8 C 31.08875 8 30.178047 8.3091875 29.435547 8.9296875 L 8.8007812 26.171875 C 8.0357812 26.810875 7.7634844 27.925203 8.2714844 28.783203 C 8.9184844 29.875203 10.35025 30.088547 11.28125 29.310547 L 12 28.710938 L 12 47 C 12 49.761 14.239 52 17 52 L 47 52 C 49.761 52 52 49.761 52 47 L 52 28.712891 L 52.71875 29.3125 C 53.09275 29.6255 53.546047 29.777344 53.998047 29.777344 C 54.693047 29.777344 55.382672 29.416656 55.763672 28.722656 C 56.228672 27.874656 55.954891 26.803594 55.212891 26.183594 L 34.564453 8.9296875 C 33.821953 8.3091875 32.91125 8 32 8 z M 32 12.152344 C 32.11475 12.152344 32.228766 12.191531 32.322266 12.269531 L 48 25.369141 L 48 46 C 48 47.105 47.105 48 46 48 L 18 48 C 16.895 48 16 47.105 16 46 L 16 25.367188 L 31.677734 12.269531 C 31.771234 12.191531 31.88525 12.152344 32 12.152344 z M 31 28 C 30.448 28 30 28.448 30 29 L 30 32 L 27 32 C 26.448 32 26 32.448 26 33 L 26 35 C 26 35.552 26.448 36 27 36 L 30 36 L 30 39 C 30 39.552 30.448 40 31 40 L 33 40 C 33.552 40 34 39.552 34 39 L 34 36 L 37 36 C 37.552 36 38 35.552 38 35 L 38 33 C 38 32.448 37.552 32 37 32 L 34 32 L 34 29 C 34 28.448 33.552 28 33 28 L 31 28 z"/></svg>