<svg xmlns="http://www.w3.org/2000/svg"  viewBox="0 0 520 520" width="512px" height="512px"><path d="M 395 39.5 A 7.5 7.5 0 0 0 395 54.5 A 7.5 7.5 0 0 0 395 39.5 z M 170 44.5 A 7.5 7.5 0 0 0 170 59.5 A 7.5 7.5 0 0 0 170 44.5 z M 447.5 44.5 C 430.958 44.5 417.5 57.958 417.5 74.5 C 417.5 91.042 430.958 104.5 447.5 104.5 C 464.042 104.5 477.5 91.042 477.5 74.5 C 477.5 57.958 464.042 44.5 447.5 44.5 z M 257.5 54.5 C 235.857 54.5 219.30039 74.052 223.02539 95.5 L 145.83203 95.5 C 124.69503 95.5 107.5 112.69503 107.5 133.83203 L 107.5 250.27734 L 57.5 250.27734 C 54.739 250.27734 52.5 252.51634 52.5 255.27734 C 52.5 258.03934 54.739 260.27734 57.5 260.27734 L 107.5 260.27734 L 107.5 447.16797 C 107.5 468.30497 124.69503 485.5 145.83203 485.5 L 369.16797 485.5 C 390.30497 485.5 407.5 468.30497 407.5 447.16797 L 407.5 290.17969 C 419.456 283.13369 427.5 270.13034 427.5 255.27734 C 427.5 240.42334 419.456 227.42295 407.5 220.37695 L 407.5 133.83203 C 407.5 112.69503 390.30497 95.5 369.16797 95.5 L 291.97461 95.5 C 295.69461 74.081 279.168 54.5 257.5 54.5 z M 447.5 54.5 C 458.528 54.5 467.5 63.472 467.5 74.5 C 467.5 85.528 458.528 94.5 447.5 94.5 C 436.472 94.5 427.5 85.528 427.5 74.5 C 427.5 63.472 436.472 54.5 447.5 54.5 z M 257.5 64.5 C 271.285 64.5 282.5 75.715 282.5 89.5 C 282.5 103.285 271.285 114.5 257.5 114.5 C 243.715 114.5 232.5 103.285 232.5 89.5 C 232.5 75.715 243.715 64.5 257.5 64.5 z M 145.83203 105.5 L 226.38672 105.5 C 232.20672 116.771 243.964 124.5 257.5 124.5 C 271.035 124.5 282.79233 116.771 288.61133 105.5 L 369.16797 105.5 C 384.79097 105.5 397.5 118.20903 397.5 133.83203 L 397.5 216.17383 C 387.722 213.54783 376.947 214.5945 367.5 219.8125 L 367.5 140.5 C 367.5 137.739 365.262 135.5 362.5 135.5 L 152.5 135.5 C 149.739 135.5 147.5 137.739 147.5 140.5 L 147.5 250.27734 L 117.5 250.27734 L 117.5 133.83203 C 117.5 118.20903 130.20903 105.5 145.83203 105.5 z M 65 109.5 A 7.5 7.5 0 0 0 65 124.5 A 7.5 7.5 0 0 0 65 109.5 z M 157.5 145.5 L 357.5 145.5 L 357.5 227.59766 C 351.776 233.69666 347.9208 241.56034 346.8418 250.27734 L 324.81836 250.27734 L 307.20508 220.06836 C 306.23508 218.40536 304.39156 217.44652 302.47656 217.60352 C 300.55656 217.76152 298.89889 219.00764 298.21289 220.80664 L 283.22656 260.14648 L 271.77539 239.84961 C 270.75539 238.03961 268.71692 237.04628 266.66992 237.36328 C 264.61492 237.67628 262.9682 239.22681 262.5332 241.25781 L 252.07617 290.05273 L 231.57031 168.66602 C 231.17731 166.33702 229.20766 164.60191 226.84766 164.50391 C 224.48766 164.40491 222.38087 165.97177 221.79688 168.25977 L 200.24805 252.56836 L 188.34961 224.71875 C 187.52561 222.79075 185.58419 221.58345 183.49219 221.68945 C 181.39819 221.79745 179.59561 223.20012 178.97461 225.20312 L 171.21289 250.27539 L 157.5 250.27539 L 157.5 145.5 z M 460 159.5 A 7.5 7.5 0 0 0 460 174.5 A 7.5 7.5 0 0 0 460 159.5 z M 225.63867 193.60156 L 246.5625 317.46094 C 246.9615 319.82594 248.98481 321.57395 251.38281 321.62695 C 253.70881 321.68895 255.86781 320.07578 256.38281 317.67578 L 269.54492 256.25 L 279.75 274.33984 C 280.702 276.02884 282.52852 277.00114 284.47852 276.86914 C 286.41152 276.72414 288.08634 275.47311 288.77734 273.66211 L 303.83398 234.14062 L 317.62695 257.79492 C 318.52295 259.33092 320.16731 260.27539 321.94531 260.27539 L 346.83984 260.27539 C 347.91884 268.99239 351.77505 276.85608 357.49805 282.95508 L 357.49805 435.5 L 157.49805 435.5 L 157.49805 260.27734 L 157.5 260.27734 L 174.89648 260.27734 C 177.08848 260.27734 179.02388 258.84886 179.67188 256.75586 L 184.49805 241.16797 L 196.8418 270.05664 C 197.6838 272.02664 199.68427 273.23617 201.82227 273.07617 C 203.95827 272.91217 205.7532 271.40508 206.2832 269.33008 L 225.63867 193.60156 z M 387.01172 224.78906 C 403.82372 224.78906 417.5 238.46534 417.5 255.27734 C 417.5 272.08834 403.82272 285.76758 387.01172 285.76758 C 371.90372 285.76758 359.33245 274.71734 356.93945 260.27734 L 370.93945 260.27734 C 373.07445 267.12434 379.47172 272.10742 387.01172 272.10742 C 396.29172 272.10742 403.8418 264.55734 403.8418 255.27734 C 403.8418 245.99734 396.29172 238.44922 387.01172 238.44922 C 379.47172 238.44922 373.07245 243.43134 370.93945 250.27734 L 356.93945 250.27734 C 359.33345 235.83634 371.90372 224.78906 387.01172 224.78906 z M 387.01172 248.44727 C 390.77872 248.44727 393.8418 251.51234 393.8418 255.27734 C 393.8418 259.04434 390.77772 262.10742 387.01172 262.10742 C 383.24572 262.10742 380.18164 259.04434 380.18164 255.27734 C 380.18164 251.51134 383.24472 248.44727 387.01172 248.44727 z M 117.5 260.27734 L 147.5 260.27734 L 147.5 440.5 C 147.5 443.262 149.739 445.5 152.5 445.5 L 362.5 445.5 C 365.262 445.5 367.5 443.262 367.5 440.5 L 367.5 290.74219 C 376.484 295.70419 387.206 297.14286 397.5 294.38086 L 397.5 447.16797 C 397.5 462.79097 384.79097 475.5 369.16797 475.5 L 145.83203 475.5 C 130.20903 475.5 117.5 462.79097 117.5 447.16797 L 117.5 260.27734 z M 440 299.5 A 7.5 7.5 0 0 0 440 314.5 A 7.5 7.5 0 0 0 440 299.5 z M 75 304.5 A 7.5 7.5 0 0 0 75 319.5 A 7.5 7.5 0 0 0 75 304.5 z M 187.5 364.5 C 184.739 364.5 182.5 366.738 182.5 369.5 C 182.5 372.262 184.739 374.5 187.5 374.5 L 277.5 374.5 C 280.262 374.5 282.5 372.262 282.5 369.5 C 282.5 366.738 280.262 364.5 277.5 364.5 L 187.5 364.5 z M 187.5 384.5 C 184.739 384.5 182.5 386.738 182.5 389.5 C 182.5 392.262 184.739 394.5 187.5 394.5 L 327.5 394.5 C 330.262 394.5 332.5 392.262 332.5 389.5 C 332.5 386.738 330.262 384.5 327.5 384.5 L 187.5 384.5 z M 67.5 389.5 C 53.715 389.5 42.5 400.715 42.5 414.5 C 42.5 428.285 53.715 439.5 67.5 439.5 C 81.285 439.5 92.5 428.285 92.5 414.5 C 92.5 400.715 81.285 389.5 67.5 389.5 z M 67.5 399.5 C 75.771 399.5 82.5 406.228 82.5 414.5 C 82.5 422.772 75.771 429.5 67.5 429.5 C 59.229 429.5 52.5 422.772 52.5 414.5 C 52.5 406.228 59.229 399.5 67.5 399.5 z M 187.5 404.5 C 184.739 404.5 182.5 406.738 182.5 409.5 C 182.5 412.262 184.739 414.5 187.5 414.5 L 327.5 414.5 C 330.262 414.5 332.5 412.262 332.5 409.5 C 332.5 406.738 330.262 404.5 327.5 404.5 L 187.5 404.5 z M 465 442 A 7.5 7.5 0 0 0 465 457 A 7.5 7.5 0 0 0 465 442 z M 100 459.5 A 7.5 7.5 0 0 0 100 474.5 A 7.5 7.5 0 0 0 100 459.5 z"/></svg>